<svg width="1695" height="247" viewBox="0 0 1695 247" xmlns="http://www.w3.org/2000/svg"><title>graph-flow</title><defs><linearGradient x1="0%" y1="60.081%" y2="60.081%" id="a"><stop stop-opacity="0" offset="0%"/><stop offset="100%"/></linearGradient></defs><g fill="none" fill-rule="evenodd"><g stroke-width=".5"><path d="M2034.557 103.377H35.392M2034.557 60.377H35.392M2034.557 82.377H35.392M2034.557 15.377H35.392M2034.557 38.377H35.392M2034.557 211.377H35.392" stroke="#EEE"/><path d="M2034.557 142.377H35.392" stroke="#9B9B9B"/><path d="M2034.557 160.377H35.392M2034.557 121.377H35.392M2034.557 178.377H35.392M2034.557 193.377H35.392" stroke="#EEE"/></g><path fill="#89D077" d="M43.78 16.25h14.73v125.8H43.78zM61.964 119.1h14.728v22.95H61.964zM80.146 129.253h14.728v12.797H80.146z"/><path fill="#E05961" d="M98.59 164.95h14.728V142H98.59zM116.03 154.797h14.728V142H116.03z"/><path fill="#89D077" d="M134.693 135.652h14.728v6.4h-14.727zM152.876 100.098h14.728v41.953h-14.728zM171.058 111.883h14.728v30.167h-14.728z"/><path fill="#E05961" d="M189.06 154.797h14.728V142H189.06zM207.59 142h14.728v10H207.59z"/><path fill="#89D077" d="M225.606 129.253h14.728v12.797h-14.728zM243.788 119.1h14.728v22.95h-14.728zM261.97 129.253h14.728v12.797H261.97zM280.153 135.652h14.728v6.4h-14.727z"/><path fill="#E05961" d="M298 164.95h14.728V142H298zM317 172.167h14.728V142H317zM335 192.694h14.728V142H335zM353 211.348h14.728V142H353zM371 164.95h14.728V142H371z"/><path fill="#89D077" d="M389.247 81.716h14.728v60.334h-14.728zM407.43 111.883h14.728v30.167H407.43zM425.612 129.253h14.728v12.797h-14.728zM443.795 141.05h14.728v1h-14.728zM461.977 141.05h14.728v1h-14.728zM480.16 141.05h14.728v1H480.16zM498.342 129.253h14.728v12.797h-14.728z"/><path fill="#E05961" d="M517 148.4h14.728V142H517zM535 154.797h14.728V142H535z"/><path fill="#89D077" d="M552.89 141.05h14.727v1H552.89zM571.072 141.05H585.8v1h-14.728zM589.254 141.05h14.728v1h-14.728zM607.437 129.253h14.728v12.797h-14.728zM625.62 135.652h14.727v6.4H625.62zM643.802 141.05h14.728v1h-14.728zM661.984 141.05h14.728v1h-14.728zM680.166 141.05h14.728v1h-14.728zM698.35 141.05h14.727v1H698.35zM716.53 20.878h14.73V142.05h-14.73zM734.714 100.098h14.728v41.953h-14.728z"/><path fill="#E05961" d="M753 164.95h14.728V142H753zM771 148.4h14.728V142H771z"/><path fill="#89D077" d="M789.26 135.652h14.73v6.4h-14.73z"/><path fill="#E05961" d="M807 154.797h14.728V142H807z"/><path fill="#89D077" d="M825.626 141.05h14.728v1h-14.728zM843.808 141.05h14.728v1h-14.728zM861.99 141.05h14.73v1h-14.73zM880.173 141.05H894.9v1h-14.727zM898.356 141.05h14.728v1h-14.728zM916.538 141.05h14.728v1h-14.728zM934.72 141.05h14.73v1h-14.73zM952.903 123.526h14.728v18.524h-14.727zM971.085 141.05h14.728v1h-14.728zM989.268 141.05h14.728v1h-14.728zM1007.45 141.05h14.728v1h-14.728zM1025.633 141.05h14.728v1h-14.727zM1043.815 141.05h14.728v1h-14.728zM1061.998 135.652h14.728v6.4h-14.728zM1080.18 129.253h14.728v12.797h-14.728zM1098.362 141.05h14.728v1h-14.728z"/><path fill="#E05961" d="M1117 154.797h14.728V142H1117z"/><path fill="#89D077" d="M1134.727 141.05h14.728v1h-14.728zM1152.91 141.05h14.728v1h-14.728zM1171.092 141.05h14.728v1h-14.728z"/><path fill="#E05961" d="M1189 211.348h14.728V142H1189z"/><path fill="#89D077" d="M1207.457 141.05h14.728v1h-14.728zM1225.64 129.253h14.727v12.797h-14.728zM1243.822 135.652h14.728v6.4h-14.728zM1262.004 129.253h14.728v12.797h-14.728zM1280.187 141.05h14.728v1h-14.728zM1298.37 141.05h14.727v1h-14.728zM1316.552 141.05h14.728v1h-14.728zM1334.734 141.05h14.728v1h-14.728zM1352.917 141.05h14.728v1h-14.728z"/><path fill="#E05961" d="M1371 164.95h14.728V142H1371z"/><path fill="#89D077" d="M1389.28 141.05h14.73v1h-14.73zM1407.464 141.05h14.728v1h-14.728z"/><path fill="#E05961" d="M1426 148.4h14.728V142H1426z"/><path fill="#89D077" d="M1443.83 141.05h14.727v1h-14.728zM1462.01 141.05h14.73v1h-14.73zM1480.194 141.05h14.728v1h-14.728zM1498.376 141.05h14.728v1h-14.728zM1516.558 135.652h14.728v6.4h-14.728zM1534.74 129.253h14.73v12.797h-14.73zM1552.923 135.652h14.728v6.4h-14.727zM1571.106 141.05h14.728v1h-14.728zM1589.288 141.05h14.728v1h-14.728z"/><path fill="#E05961" d="M1607 183.953h14.728V142H1607z"/><path fill="#89D077" d="M1625.653 141.05h14.728v1h-14.727zM1643.836 141.05h14.728v1h-14.728zM1662.018 141.05h14.728v1h-14.728zM1680.2 91.356h14.728v50.694H1680.2z"/><g><path d="M-20.653-9h56.895v231h-56.895V-9z" fill="#FFF"/><path d="M7.527 176.53c-.9 0-1.79.38-2.55 1l.47.91c.59-.54 1.3-.88 1.91-.88.73 0 1.17.34 1.17.9 0 .4-.34.97-.85 1.49l-2.58 2.77v.86h4.98v-1.06h-3.42l1.82-1.93c.74-.8 1.28-1.59 1.28-2.3 0-1.07-.91-1.76-2.23-1.76zm6.46.02c-1.92 0-2.98 1.26-2.98 3.53 0 2.27 1.06 3.53 2.98 3.53 1.91 0 2.97-1.26 2.97-3.53 0-2.27-1.06-3.53-2.97-3.53zm0 .93c1.17 0 1.76.82 1.76 2.6 0 1.77-.59 2.6-1.76 2.6-1.18 0-1.77-.83-1.77-2.6 0-1.78.59-2.6 1.77-2.6zm6.91-.93c-1.92 0-2.98 1.26-2.98 3.53 0 2.27 1.06 3.53 2.98 3.53 1.91 0 2.97-1.26 2.97-3.53 0-2.27-1.06-3.53-2.97-3.53zm0 .93c1.17 0 1.76.82 1.76 2.6 0 1.77-.59 2.6-1.76 2.6-1.18 0-1.77-.83-1.77-2.6 0-1.78.59-2.6 1.77-2.6zM6.482 98.597c-.9 0-1.79.38-2.55 1l.47.91c.59-.54 1.3-.88 1.91-.88.73 0 1.17.34 1.17.9 0 .4-.34.97-.85 1.49l-2.58 2.77v.86h4.98v-1.06h-3.42l1.82-1.93c.74-.8 1.28-1.59 1.28-2.3 0-1.07-.91-1.76-2.23-1.76zm6.475.02c-1.92 0-2.98 1.26-2.98 3.53 0 2.27 1.06 3.53 2.98 3.53 1.91 0 2.97-1.26 2.97-3.53 0-2.27-1.06-3.53-2.97-3.53zm0 .93c1.17 0 1.76.82 1.76 2.6 0 1.77-.59 2.6-1.76 2.6-1.18 0-1.77-.83-1.77-2.6 0-1.78.59-2.6 1.77-2.6zm6.925-.93c-1.92 0-2.98 1.26-2.98 3.53 0 2.27 1.06 3.53 2.98 3.53 1.91 0 2.97-1.26 2.97-3.53 0-2.27-1.06-3.53-2.97-3.53zm0 .93c1.17 0 1.76.82 1.76 2.6 0 1.77-.59 2.6-1.76 2.6-1.18 0-1.77-.83-1.77-2.6 0-1.78.59-2.6 1.77-2.6zM5.06 61.786l2.27-4.23H6.19l-2.39 4.4v.88h3.34v1.72h1.1v-1.72h1.02v-1.05H8.24v-1.66h-1.1v1.66H5.06zm7.902-4.26c-1.92 0-2.98 1.26-2.98 3.53 0 2.27 1.06 3.53 2.98 3.53 1.91 0 2.97-1.26 2.97-3.53 0-2.27-1.06-3.53-2.97-3.53zm0 .93c1.17 0 1.76.82 1.76 2.6 0 1.77-.59 2.6-1.76 2.6-1.18 0-1.77-.83-1.77-2.6 0-1.78.59-2.6 1.77-2.6zm6.923-.93c-1.92 0-2.98 1.26-2.98 3.53 0 2.27 1.06 3.53 2.98 3.53 1.91 0 2.97-1.26 2.97-3.53 0-2.27-1.06-3.53-2.97-3.53zm0 .93c1.17 0 1.76.82 1.76 2.6 0 1.77-.59 2.6-1.76 2.6-1.18 0-1.77-.83-1.77-2.6 0-1.78.59-2.6 1.77-2.6zM7.875 14.64c-1.85 0-3.02 1.46-3.02 3.69 0 2.15 1.08 3.41 2.85 3.41 1.49 0 2.46-.9 2.46-2.35 0-1.36-.85-2.23-2.25-2.23-.88 0-1.54.34-1.91.99-.04-1.51.59-2.53 1.95-2.53.53 0 1.12.16 1.55.44l.46-.89c-.57-.32-1.4-.53-2.09-.53zm-.18 3.45c.85 0 1.37.49 1.37 1.29 0 .85-.57 1.34-1.42 1.34-1.01 0-1.46-.69-1.45-1.3-.01-.72.55-1.33 1.5-1.33zm6.29-3.43c-1.92 0-2.98 1.26-2.98 3.53 0 2.27 1.06 3.53 2.98 3.53 1.91 0 2.97-1.26 2.97-3.53 0-2.27-1.06-3.53-2.97-3.53zm0 .93c1.17 0 1.76.82 1.76 2.6 0 1.77-.59 2.6-1.76 2.6-1.18 0-1.77-.83-1.77-2.6 0-1.78.59-2.6 1.77-2.6zm6.91-.93c-1.92 0-2.98 1.26-2.98 3.53 0 2.27 1.06 3.53 2.98 3.53 1.91 0 2.97-1.26 2.97-3.53 0-2.27-1.06-3.53-2.97-3.53zm0 .93c1.17 0 1.76.82 1.76 2.6 0 1.77-.59 2.6-1.76 2.6-1.18 0-1.77-.83-1.77-2.6 0-1.78.59-2.6 1.77-2.6zM6.097 211.81l2.27-4.23h-1.14l-2.39 4.4v.88h3.34v1.72h1.1v-1.72h1.02v-1.05h-1.02v-1.66h-1.1v1.66h-2.08zm7.89-4.26c-1.92 0-2.98 1.26-2.98 3.53 0 2.27 1.06 3.53 2.98 3.53 1.91 0 2.97-1.26 2.97-3.53 0-2.27-1.06-3.53-2.97-3.53zm0 .93c1.17 0 1.76.82 1.76 2.6 0 1.77-.59 2.6-1.76 2.6-1.18 0-1.77-.83-1.77-2.6 0-1.78.59-2.6 1.77-2.6zm6.91-.93c-1.92 0-2.98 1.26-2.98 3.53 0 2.27 1.06 3.53 2.98 3.53 1.91 0 2.97-1.26 2.97-3.53 0-2.27-1.06-3.53-2.97-3.53zm0 .93c1.17 0 1.76.82 1.76 2.6 0 1.77-.59 2.6-1.76 2.6-1.18 0-1.77-.83-1.77-2.6 0-1.78.59-2.6 1.77-2.6zM19.882 139.617c-1.92 0-2.98 1.26-2.98 3.53 0 2.27 1.06 3.53 2.98 3.53 1.91 0 2.97-1.26 2.97-3.53 0-2.27-1.06-3.53-2.97-3.53zm0 .93c1.17 0 1.76.82 1.76 2.6 0 1.77-.59 2.6-1.76 2.6-1.18 0-1.77-.83-1.77-2.6 0-1.78.59-2.6 1.77-2.6z" fill="#9B9B9B"/><g stroke="#9B9B9B" stroke-width=".5"><path d="M36.31 103.377H29.39M36.31 60.377H29.39M36.31 82.377H29.39M36.31 15.377H29.39M36.31 38.377H29.39M36.31 211.377H29.39M36.31 142.377H29.39M36.31 160.377H29.39M36.31 121.377H29.39M36.31 178.377H29.39M36.31 193.377H29.39"/></g></g><g><path d="M920.347 267h-932v-48h932v48z" fill="#FFF"/><path d="M138.448 231.896l-.012-1.268h-5.094v4.425a28.48 28.48 0 0 1 2.2-.107c1.076 0 1.734.526 1.734 1.375 0 .946-.658 1.508-1.746 1.508-.753 0-1.59-.323-2.26-.885l-.562 1.148c.825.575 1.985.958 2.978.958 1.877 0 3.097-1.112 3.097-2.81 0-1.472-1.172-2.548-2.99-2.548l-1.148.012v-1.806h3.803zM44.485 230.592c-2.296 0-3.564 1.507-3.564 4.222 0 2.715 1.27 4.222 3.565 4.222 2.284 0 3.552-1.507 3.552-4.222 0-2.715-1.268-4.222-3.552-4.222zm0 1.113c1.4 0 2.105.98 2.105 3.11 0 2.116-.706 3.11-2.105 3.11-1.41 0-2.117-.994-2.117-3.11 0-2.13.706-3.11 2.117-3.11zM222.606 239v-8.372h-3.05v1.256h1.64V239h1.41zm5.56-8.408c-2.295 0-3.563 1.507-3.563 4.222 0 2.715 1.268 4.222 3.564 4.222 2.284 0 3.552-1.507 3.552-4.222 0-2.715-1.27-4.222-3.553-4.222zm0 1.113c1.4 0 2.106.98 2.106 3.11 0 2.116-.706 3.11-2.105 3.11-1.41 0-2.117-.994-2.117-3.11 0-2.13.706-3.11 2.117-3.11zM402.643 230.57c-1.076 0-2.14.453-3.05 1.194l.563 1.09c.705-.647 1.554-1.054 2.284-1.054.873 0 1.4.407 1.4 1.077 0 .478-.407 1.16-1.017 1.782l-3.086 3.31V239h5.956v-1.268h-4.09l2.176-2.308c.884-.957 1.53-1.9 1.53-2.75 0-1.28-1.088-2.105-2.667-2.105zm7.726.022c-2.297 0-3.565 1.507-3.565 4.222 0 2.715 1.268 4.222 3.564 4.222 2.283 0 3.55-1.507 3.55-4.222 0-2.715-1.267-4.222-3.55-4.222zm0 1.113c1.398 0 2.104.98 2.104 3.11 0 2.116-.706 3.11-2.105 3.11-1.412 0-2.118-.994-2.118-3.11 0-2.13.706-3.11 2.117-3.11zM314.552 239v-8.372h-3.05v1.256h1.64V239h1.41zm7.475-7.104l-.012-1.268h-5.095v4.425a28.48 28.48 0 0 1 2.2-.107c1.077 0 1.735.526 1.735 1.375 0 .946-.658 1.508-1.746 1.508-.755 0-1.592-.323-2.262-.885l-.562 1.148c.826.575 1.986.958 2.978.958 1.878 0 3.098-1.112 3.098-2.81 0-1.472-1.172-2.548-2.99-2.548l-1.148.012v-1.806h3.803zM493.325 230.57c-1.076 0-2.14.453-3.05 1.194l.562 1.09c.706-.647 1.555-1.054 2.285-1.054.873 0 1.4.407 1.4 1.077 0 .478-.408 1.16-1.018 1.782l-3.085 3.31V239h5.955v-1.268h-4.09l2.176-2.308c.886-.957 1.532-1.9 1.532-2.75 0-1.28-1.088-2.105-2.667-2.105zm9.64 1.326l-.013-1.268h-5.094v4.425a28.48 28.48 0 0 1 2.2-.107c1.077 0 1.734.526 1.734 1.375 0 .946-.657 1.508-1.746 1.508-.753 0-1.59-.323-2.26-.885l-.562 1.148c.825.575 1.985.958 2.978.958 1.877 0 3.097-1.112 3.097-2.81 0-1.472-1.173-2.548-2.99-2.548l-1.15.012v-1.806h3.804zM673.307 234.11l2.392-2.585v-.885h-5.096v1.256h3.35l-2.178 2.344v.825h1.16c1.113 0 1.77.467 1.77 1.376 0 .862-.646 1.436-1.758 1.436-.765 0-1.543-.31-2.14-.873l-.587 1.148c.72.55 1.795.91 2.824.91 1.866 0 3.05-1.09 3.05-2.655 0-1.316-.957-2.13-2.356-2.25l-.43-.046zm9.364-2.214l-.01-1.268h-5.095v4.425a28.48 28.48 0 0 1 2.2-.107c1.077 0 1.734.526 1.734 1.375 0 .946-.658 1.508-1.747 1.508-.753 0-1.59-.323-2.26-.885l-.562 1.148c.826.575 1.986.958 2.98.958 1.876 0 3.096-1.112 3.096-2.81 0-1.472-1.172-2.548-2.99-2.548l-1.148.012v-1.806h3.803zM583.625 234.11l2.392-2.585v-.885h-5.095v1.256h3.35l-2.177 2.344v.825h1.16c1.112 0 1.77.467 1.77 1.376 0 .862-.646 1.436-1.758 1.436-.766 0-1.543-.31-2.14-.873l-.587 1.148c.717.55 1.794.91 2.822.91 1.866 0 3.05-1.09 3.05-2.655 0-1.316-.957-2.13-2.356-2.25l-.43-.046zm7.45-3.518c-2.295 0-3.563 1.507-3.563 4.222 0 2.715 1.268 4.222 3.564 4.222 2.284 0 3.552-1.507 3.552-4.222 0-2.715-1.268-4.222-3.552-4.222zm0 1.113c1.4 0 2.106.98 2.106 3.11 0 2.116-.705 3.11-2.104 3.11-1.41 0-2.117-.994-2.117-3.11 0-2.13.705-3.11 2.116-3.11zM763 235.687l2.714-5.06h-1.364l-2.858 5.264v1.053h3.994V239h1.316v-2.057h1.22v-1.256h-1.22v-1.985h-1.316v1.985H763zm9.435-5.095c-2.296 0-3.564 1.507-3.564 4.222 0 2.715 1.27 4.222 3.565 4.222 2.284 0 3.552-1.507 3.552-4.222 0-2.715-1.268-4.222-3.552-4.222zm0 1.113c1.4 0 2.105.98 2.105 3.11 0 2.116-.706 3.11-2.105 3.11-1.41 0-2.117-.994-2.117-3.11 0-2.13.706-3.11 2.117-3.11zM852.18 235.687l2.715-5.06h-1.363l-2.858 5.264v1.053h3.994V239h1.316v-2.057h1.22v-1.256h-1.22v-1.985h-1.316v1.985h-2.487zm11.35-3.79l-.012-1.27h-5.095v4.426a28.48 28.48 0 0 1 2.2-.107c1.077 0 1.735.526 1.735 1.375 0 .946-.658 1.508-1.746 1.508-.753 0-1.59-.323-2.26-.885l-.562 1.148c.825.575 1.985.958 2.977.958 1.878 0 3.098-1.112 3.098-2.81 0-1.472-1.172-2.548-2.99-2.548l-1.148.012v-1.806h3.803zM1037.65 231.896l-.01-1.268h-5.096v4.425a28.48 28.48 0 0 1 2.2-.107c1.077 0 1.735.526 1.735 1.375 0 .946-.66 1.508-1.747 1.508-.754 0-1.59-.323-2.26-.885l-.563 1.148c.825.575 1.986.958 2.978.958 1.878 0 3.098-1.112 3.098-2.81 0-1.472-1.172-2.548-2.99-2.548l-1.148.012v-1.806h3.803zm6.902 0l-.012-1.268h-5.095v4.425a28.48 28.48 0 0 1 2.2-.107c1.077 0 1.735.526 1.735 1.375 0 .946-.658 1.508-1.747 1.508-.753 0-1.59-.323-2.26-.885l-.562 1.148c.826.575 1.986.958 2.98.958 1.877 0 3.096-1.112 3.096-2.81 0-1.472-1.172-2.548-2.99-2.548l-1.148.012v-1.806h3.804zM945.97 231.896l-.013-1.268h-5.095v4.425a28.48 28.48 0 0 1 2.2-.107c1.077 0 1.735.526 1.735 1.375 0 .946-.658 1.508-1.746 1.508-.752 0-1.59-.323-2.26-.885l-.56 1.148c.824.575 1.984.958 2.977.958 1.877 0 3.097-1.112 3.097-2.81 0-1.472-1.172-2.548-2.99-2.548l-1.148.012v-1.806h3.803zm4.986-1.304c-2.296 0-3.564 1.507-3.564 4.222 0 2.715 1.268 4.222 3.564 4.222 2.285 0 3.552-1.507 3.552-4.222 0-2.715-1.267-4.222-3.552-4.222zm0 1.113c1.4 0 2.105.98 2.105 3.11 0 2.116-.704 3.11-2.104 3.11-1.41 0-2.117-.994-2.117-3.11 0-2.13.705-3.11 2.116-3.11zM1124.876 230.57c-2.212 0-3.612 1.745-3.612 4.412 0 2.57 1.292 4.078 3.41 4.078 1.78 0 2.94-1.077 2.94-2.81 0-1.627-1.016-2.668-2.69-2.668-1.052 0-1.842.407-2.284 1.184-.048-1.806.705-3.025 2.332-3.025.634 0 1.34.192 1.854.527l.55-1.065c-.682-.382-1.675-.633-2.5-.633zm-.215 4.125c1.018 0 1.64.586 1.64 1.542 0 1.017-.682 1.603-1.7 1.603-1.207 0-1.745-.825-1.733-1.555-.012-.86.658-1.59 1.794-1.59zm7.524-4.103c-2.297 0-3.564 1.507-3.564 4.222 0 2.715 1.267 4.222 3.564 4.222 2.284 0 3.552-1.507 3.552-4.222 0-2.715-1.268-4.222-3.552-4.222zm0 1.113c1.4 0 2.104.98 2.104 3.11 0 2.116-.705 3.11-2.104 3.11-1.412 0-2.117-.994-2.117-3.11 0-2.13.705-3.11 2.117-3.11zM1308.49 231.705v-1.077h-6.088v2.44h1.244l.012-1.172h3.253L1303.66 239h1.495l3.336-7.295zm4.424-1.113c-2.296 0-3.563 1.507-3.563 4.222 0 2.715 1.268 4.222 3.564 4.222 2.285 0 3.552-1.507 3.552-4.222 0-2.715-1.267-4.222-3.552-4.222zm0 1.113c1.4 0 2.105.98 2.105 3.11 0 2.116-.706 3.11-2.106 3.11-1.41 0-2.116-.994-2.116-3.11 0-2.13.705-3.11 2.116-3.11zM1215.186 230.57c-2.213 0-3.612 1.745-3.612 4.412 0 2.57 1.292 4.078 3.41 4.078 1.78 0 2.94-1.077 2.94-2.81 0-1.627-1.016-2.668-2.69-2.668-1.053 0-1.842.407-2.285 1.184-.048-1.806.705-3.025 2.332-3.025.633 0 1.34.192 1.853.527l.55-1.065c-.68-.382-1.674-.633-2.5-.633zm-.215 4.125c1.017 0 1.64.586 1.64 1.542 0 1.017-.683 1.603-1.7 1.603-1.207 0-1.745-.825-1.733-1.555-.012-.86.657-1.59 1.794-1.59zm9.437-2.8l-.012-1.267h-5.095v4.425a28.48 28.48 0 0 1 2.2-.107c1.077 0 1.735.526 1.735 1.375 0 .946-.658 1.508-1.746 1.508-.755 0-1.592-.323-2.262-.885l-.562 1.148c.825.575 1.985.958 2.978.958 1.878 0 3.098-1.112 3.098-2.81 0-1.472-1.172-2.548-2.99-2.548l-1.148.012v-1.806h3.803zM1399.17 231.705v-1.077h-6.086v2.44h1.243l.012-1.172h3.252L1394.34 239h1.494l3.337-7.295zm6.34.19l-.012-1.267h-5.095v4.425a28.48 28.48 0 0 1 2.2-.107c1.077 0 1.735.526 1.735 1.375 0 .946-.658 1.508-1.746 1.508-.754 0-1.59-.323-2.26-.885l-.563 1.148c.824.575 1.984.958 2.977.958 1.878 0 3.098-1.112 3.098-2.81 0-1.472-1.172-2.548-2.99-2.548l-1.148.012v-1.806h3.803zM1576.05 230.57c-1.71 0-2.8.8-2.8 2.115 0 .814.49 1.47 1.305 1.842-1.065.335-1.722 1.124-1.722 2.153 0 1.47 1.243 2.38 3.217 2.38 1.985 0 3.23-.91 3.23-2.404 0-1.017-.647-1.794-1.664-2.13.778-.346 1.244-.98 1.244-1.793 0-1.34-1.088-2.164-2.81-2.164zm0 1.015c1.016 0 1.602.455 1.602 1.232 0 .777-.586 1.22-1.602 1.22-1.005 0-1.603-.443-1.603-1.22 0-.777.598-1.232 1.603-1.232zm0 3.552c1.196 0 1.89.514 1.89 1.387 0 .91-.694 1.424-1.89 1.424s-1.878-.515-1.878-1.424c0-.873.694-1.387 1.878-1.387zm9.795-3.24l-.012-1.27h-5.095v4.426a28.48 28.48 0 0 1 2.2-.107c1.077 0 1.735.526 1.735 1.375 0 .946-.658 1.508-1.747 1.508-.753 0-1.59-.323-2.26-.885l-.562 1.148c.825.575 1.985.958 2.978.958 1.878 0 3.097-1.112 3.097-2.81 0-1.472-1.173-2.548-2.99-2.548l-1.15.012v-1.806h3.805zM1486.368 230.57c-1.71 0-2.8.8-2.8 2.115 0 .814.492 1.47 1.305 1.842-1.064.335-1.722 1.124-1.722 2.153 0 1.47 1.245 2.38 3.218 2.38 1.985 0 3.23-.91 3.23-2.404 0-1.017-.647-1.794-1.663-2.13.777-.346 1.243-.98 1.243-1.793 0-1.34-1.088-2.164-2.81-2.164zm0 1.015c1.017 0 1.603.455 1.603 1.232 0 .777-.585 1.22-1.602 1.22-1.005 0-1.603-.443-1.603-1.22 0-.777.598-1.232 1.603-1.232zm0 3.552c1.196 0 1.89.514 1.89 1.387 0 .91-.694 1.424-1.89 1.424s-1.878-.515-1.878-1.424c0-.873.694-1.387 1.878-1.387zm7.88-4.545c-2.295 0-3.563 1.507-3.563 4.222 0 2.715 1.268 4.222 3.564 4.222 2.284 0 3.55-1.507 3.55-4.222 0-2.715-1.266-4.222-3.55-4.222zm0 1.113c1.4 0 2.106.98 2.106 3.11 0 2.116-.705 3.11-2.105 3.11-1.412 0-2.118-.994-2.118-3.11 0-2.13.706-3.11 2.117-3.11zM1666.93 239.06c2.214 0 3.613-1.746 3.613-4.413 0-2.572-1.29-4.078-3.408-4.078-1.782 0-2.942 1.075-2.942 2.81 0 1.626 1.016 2.666 2.69 2.666 1.053 0 1.842-.407 2.285-1.184.048 1.806-.706 3.026-2.332 3.026-.634 0-1.34-.192-1.854-.526l-.55 1.064c.682.383 1.674.634 2.5.634zm.217-4.126c-1.017 0-1.64-.586-1.64-1.543 0-1.016.683-1.602 1.7-1.602 1.207 0 1.746.826 1.734 1.555.013.86-.657 1.59-1.793 1.59zm8.037-4.342c-2.297 0-3.564 1.507-3.564 4.222 0 2.715 1.267 4.222 3.564 4.222 2.284 0 3.552-1.507 3.552-4.222 0-2.715-1.268-4.222-3.552-4.222zm0 1.113c1.4 0 2.104.98 2.104 3.11 0 2.116-.705 3.11-2.104 3.11-1.412 0-2.117-.994-2.117-3.11 0-2.13.705-3.11 2.117-3.11z" fill="#9B9B9B"/><g stroke="#9B9B9B" stroke-width=".5"><path d="M117 218.662v6.918M81 218.662v6.918M99 218.662v6.918M44.748 218.662v6.918M63 218.662v6.918M153 218.662v6.918M171 218.662v6.918M135 218.662v6.918M189 218.662v6.918M207 218.662v6.918M297 218.662v6.918M261 218.662v6.918M279 218.662v6.918M224.748 218.662v6.918M243 218.662v6.918M333 218.662v6.918M351 218.662v6.918M315 218.662v6.918M369 218.662v6.918M387 218.662v6.918M479 218.662v6.918M443 218.662v6.918M461 218.662v6.918M406.748 218.662v6.918M425 218.662v6.918M515 218.662v6.918M533 218.662v6.918M497 218.662v6.918M551 218.662v6.918M569 218.662v6.918M659 218.662v6.918M623 218.662v6.918M641 218.662v6.918M586.748 218.662v6.918M605 218.662v6.918M695 218.662v6.918M713 218.662v6.918M677 218.662v6.918M731 218.662v6.918M749 218.662v6.918M840 218.662v6.918M804 218.662v6.918M822 218.662v6.918M767.748 218.662v6.918M786 218.662v6.918M876 218.662v6.918M894 218.662v6.918M858 218.662v6.918M912 218.662v6.918M930 218.662v6.918M1019.252 218.662v6.918M983.252 218.662v6.918M1001.252 218.662v6.918M947 218.662v6.918M965.252 218.662v6.918M1055.252 218.662v6.918M1073.252 218.662v6.918M1037.252 218.662v6.918M1091.252 218.662v6.918M1109.252 218.662v6.918M1199.252 218.662v6.918M1163.252 218.662v6.918M1181.252 218.662v6.918M1127 218.662v6.918M1145.252 218.662v6.918M1235.252 218.662v6.918M1253.252 218.662v6.918M1217.252 218.662v6.918M1271.252 218.662v6.918M1289.252 218.662v6.918M1381.252 218.662v6.918M1345.252 218.662v6.918M1363.252 218.662v6.918M1309 218.662v6.918M1327.252 218.662v6.918M1417.252 218.662v6.918M1435.252 218.662v6.918M1399.252 218.662v6.918M1453.252 218.662v6.918M1471.252 218.662v6.918M1561.252 218.662v6.918M1525.252 218.662v6.918M1543.252 218.662v6.918M1489 218.662v6.918M1507.252 218.662v6.918M1597.252 218.662v6.918M1615.252 218.662v6.918M1579.252 218.662v6.918M1633.252 218.662v6.918M1651.252 218.662v6.918M1670 218.662v6.918M1688.252 218.662v6.918"/></g></g><g><path d="M244.624-1v219.71" stroke="#0A0A08"/><path d="M.395 219.71h84.53V0H.394v219.71z" fill-opacity=".2" fill="url(#a)" transform="translate(159.7 -1)"/><path d="M211.7 199.234h32.924v14.49H211.7v-14.49z" fill="#0A0A08"/><path d="M220.186 210.6v-7.382h-2.69v1.107h1.445v6.275h1.246zm4.077 0v-7.382h-2.69v1.107h1.446v6.275h1.243zm2.4-4.43c-.38 0-.664.286-.664.686 0 .412.284.707.664.707.38 0 .664-.295.664-.707 0-.4-.285-.685-.664-.685zm0 3.133c-.38 0-.664.285-.664.685 0 .412.284.707.664.707.38 0 .664-.295.664-.707 0-.4-.285-.685-.664-.685zm4.328-6.138c-.948 0-1.886.4-2.688 1.055l.496.96c.622-.57 1.37-.928 2.014-.928.77 0 1.234.358 1.234.95 0 .42-.36 1.022-.896 1.57l-2.72 2.92v.908h5.25v-1.118h-3.606l1.92-2.035c.78-.844 1.35-1.677 1.35-2.426 0-1.127-.96-1.855-2.353-1.855zm8.65 1.17l-.01-1.117h-4.493v3.902a25.114 25.114 0 0 1 1.94-.095c.95 0 1.53.464 1.53 1.213 0 .833-.58 1.33-1.54 1.33-.665 0-1.403-.286-1.994-.782l-.495 1.013c.727.505 1.75.842 2.626.842 1.655 0 2.73-.98 2.73-2.478 0-1.297-1.033-2.246-2.636-2.246l-1.012.01v-1.592h3.354z" fill="#FFF"/></g></g></svg>