<svg width="1695" height="247" viewBox="0 0 1695 247" xmlns="http://www.w3.org/2000/svg"><title>graph-loss</title><defs><linearGradient x1="0%" y1="60.081%" y2="60.081%" id="a"><stop stop-opacity="0" offset="0%"/><stop offset="100%"/></linearGradient></defs><g fill="none" fill-rule="evenodd"><g stroke="#EEE" stroke-width=".5"><path d="M2034.557 103.377H35.392M2034.557 60.377H35.392M2034.557 82.377H35.392M2034.557 15.377H35.392M2034.557 38.377H35.392M2034.557 211.377H35.392M2034.557 142.377H35.392M2034.557 160.377H35.392M2034.557 121.377H35.392M2034.557 178.377H35.392M2034.557 193.377H35.392"/></g><path d="M32.48 80.376l27.738 47.816 28.675-34.3 20.106-7.3 11.286 16.18 14.972 13.97 15.348-11.84 24.74.83 19.258-19.14 17.446 12.39 11.592 17.76 12.074-9.352 17.87-5.328 17.058-21.686 16.738 16.95 8.222 17.286 33.808 4.973 15.837-14.682 31.563 6.553L416.507 84.3l24.953 18.946 15.458 4.5 23.663-9.592 8.21 6.868 24.32 16.476 27.842-5.82 14.722-18.353 14.74 10.657 23.04 20.21 15.597-23.29 17.388 8.526 26.32-16.103 28.693 7.578 27.26-18.31 9.566 24.863L743.8 89.63l26.08 7.695 34-10.733 32.043 21.39 34.91-27.606 33 64.074" stroke="#538895" stroke-width="74"/><path d="M853.48 80.376l27.738 47.816 28.675-34.3 20.106-7.3 11.286 16.18 14.972 13.97 15.348-11.84 24.74.83 19.258-19.14 17.446 12.39 11.592 17.76 12.074-9.352 17.87-5.328 17.058-21.686 16.738 16.95 8.222 17.286 33.808 4.973 15.837-14.682 31.563 6.553 39.694-27.155 24.953 18.946 15.458 4.5 23.663-9.592 8.21 6.868 24.32 16.476 27.842-5.82 14.722-18.353 14.74 10.657 23.04 20.21 15.597-23.29 17.388 8.526 26.32-16.103 28.693 7.578 27.26-18.31 9.566 24.863L1564.8 89.63l26.08 7.695 34-10.733 32.043 21.39 34.91-27.606 33 64.074" stroke="#538895" stroke-width="74"/><path d="M32.48 121.498L50.5 96.444l13.646 7.155 16.568-7.84L101 91.065l11.39 10.402 15.106 8.98 15.485-7.61 24.963.532 19.432-12.304 17.603 7.966 11.696 11.417 12.182-6.014 18.03-3.425L264.1 87.07l16.89 10.896 8.295 11.113 34.11 3.196 15.98-9.438 31.85 4.212 40.05-17.457 25.177 12.18 15.597 2.89 23.875-6.164 8.285 4.414 24.538 10.592 28.09-3.742 14.855-11.798 14.872 6.85 23.25 12.993 15.735-14.972 17.543 5.48 26.556-10.352 28.952 4.872 27.504-11.772 9.65 15.984 25.754-14.03 26.315 4.946 34.307-6.9 32.33 13.75 26.057-9.057 28.97 43.908" stroke="#B4F1FF" stroke-width="35"/><path d="M853.48 121.498l18.02-25.054 13.646 7.155 16.568-7.84L922 91.065l11.39 10.402 15.106 8.98 15.485-7.61 24.963.532 19.432-12.304 17.603 7.966 11.696 11.417 12.182-6.014 18.03-3.425 17.212-13.94 16.89 10.896 8.295 11.113 34.11 3.196 15.98-9.438 31.85 4.212 40.05-17.457 25.177 12.18 15.597 2.89 23.875-6.164 8.285 4.414 24.538 10.592 28.09-3.742 14.855-11.798 14.872 6.85 23.25 12.993 15.735-14.972 17.543 5.48 26.556-10.352 28.952 4.872 27.504-11.772 9.65 15.984 25.754-14.03 26.315 4.946 34.307-6.9 32.33 13.75 26.057-9.057 28.97 43.908" stroke="#B4F1FF" stroke-width="35"/><path d="M41.09 133.93l17.637-38.973 13.356 11.13L88.3 93.892l19.856-7.3 11.147 16.18 14.786 13.97 15.156-11.84 24.432.83 19.02-19.14 17.23 12.39 11.447 17.76 11.924-9.352 17.647-5.328 16.846-21.686 16.53 16.95 8.12 17.286 33.39 4.973 15.64-14.682 31.17 6.553L411.846 84.3l24.644 18.946 15.265 4.5 23.37-9.592 8.108 6.868 24.017 16.476 27.496-5.82 14.54-18.353 14.555 10.657 22.757 20.21L602 104.902l17.17 8.526 25.992-16.103 28.338 7.578 26.922-18.31 9.446 24.863 25.206-21.827 25.757 7.695 33.58-10.733 31.644 21.39 25.504-14.09 16.53 43.863M867.09 133.93l17.752-38.973 13.443 11.13 16.323-12.195 19.985-7.3 11.22 16.18 14.883 13.97 15.256-11.84 24.59.83 19.145-19.14 17.342 12.39 11.522 17.76 12.002-9.352 17.763-5.328 16.956-21.686 16.638 16.95 8.174 17.286 33.606 4.973 15.743-14.682 31.375 6.553 39.457-27.155 24.805 18.946 15.365 4.5 23.522-9.592 8.16 6.868 24.176 16.476 27.674-5.82 14.635-18.353 14.65 10.657 22.905 20.21 15.502-23.29 17.283 8.526 26.162-16.103 28.523 7.578 27.097-18.31 9.507 24.863 25.37-21.827 25.926 7.695 33.798-10.733 31.85 21.39 25.67-14.09 16.64 43.863" stroke="#5FBEFF" stroke-width="2"/><g transform="translate(40.132 24.908)" stroke="#E76959" stroke-width="2"><path d="M731.474 114.902l14.928-4.96M750.836 103.284l7.652-34.428M771.568 44.092l5.093-12.533M792.43 69.423l-12.44-40.91M822.572 106.153l-28.695-37.297M174.568 117.092l-40.66 25.4M218.96 70.662l-40.098 42.185M222.69 71.902l42.496 59.386M266.858 126.236l17.216-29.646M292.353 91.737l61.166-6.27M87.386 98.22l-34.83-63.225M367.288 46.86l31.87-5.736M353.897 83.2l10.52-33.47M399.808 44.948l21.918 74.062M426.59 121.454l16.284 1.275M447.85 121.49l10.303-30.638M464.02 84.3l43.54-23.555M511.716 56.424l26.782-42.08M571.018 88.94l-3.826-24.866M563.54 54.546l-20.26-40.2M585.93 142.564l-13-45.018M588.234 142.493l18.844-68.112M607.364 69.812l16.26-63.118M632.232 79.376l-7.65-71.725M635.102 76.507l11.783-21.96M670.492 124.323l-23.607-68.537M685.568 107.092l5.966-7.633M693.447 100.415l9.416 26.033M708.75 74.594l-6.695 43.99M708.75 76.507l6.553 83.413M728.837 118.585L717.79 157.44M88.52 101.726l45.638 44.343m-45.64-44.344l45.64 44.343M5.208 74.548l45.64-45.82"/><path d="M646.456 56.996c2.64 0 4.782-2.15 4.782-4.8 0-2.652-2.14-4.802-4.782-4.802-2.64 0-4.78 2.15-4.78 4.8 0 2.652 2.14 4.802 4.78 4.802zM671.336 131.377c2.64 0 4.782-2.15 4.782-4.8 0-2.652-2.14-4.8-4.782-4.8-2.64 0-4.782 2.148-4.782 4.8 0 2.65 2.14 4.8 4.782 4.8zM692.483 102.864c2.64 0 4.782-2.15 4.782-4.8 0-2.652-2.14-4.8-4.782-4.8-2.64 0-4.78 2.148-4.78 4.8 0 2.65 2.14 4.8 4.78 4.8zM701.19 127.658c2.642 0 4.783-2.15 4.783-4.8 0-2.652-2.14-4.8-4.782-4.8-2.64 0-4.78 2.148-4.78 4.8 0 2.65 2.14 4.8 4.78 4.8zM708.655 78.07c2.64 0 4.782-2.15 4.782-4.8 0-2.652-2.14-4.8-4.782-4.8-2.64 0-4.782 2.148-4.782 4.8 0 2.65 2.14 4.8 4.782 4.8zM714.875 164.85c2.64 0 4.78-2.15 4.78-4.802 0-2.65-2.14-4.8-4.78-4.8s-4.782 2.15-4.782 4.8 2.14 4.8 4.782 4.8zM729.802 121.46c2.64 0 4.782-2.15 4.782-4.8 0-2.652-2.14-4.802-4.782-4.802-2.64 0-4.78 2.15-4.78 4.8 0 2.652 2.14 4.802 4.78 4.802zM749.706 112.782c2.64 0 4.782-2.15 4.782-4.8 0-2.652-2.14-4.802-4.782-4.802-2.64 0-4.782 2.15-4.782 4.8 0 2.652 2.14 4.802 4.782 4.802zM759.658 68.153c2.64 0 4.78-2.15 4.78-4.8 0-2.652-2.14-4.802-4.78-4.802s-4.782 2.15-4.782 4.802c0 2.652 2.14 4.8 4.782 4.8zM778.317 32.202c2.64 0 4.782-2.15 4.782-4.8 0-2.652-2.142-4.802-4.783-4.802-2.64 0-4.782 2.15-4.782 4.8 0 2.653 2.14 4.802 4.782 4.802zM790.757 69.393c2.64 0 4.782-2.15 4.782-4.8 0-2.652-2.142-4.802-4.783-4.802-2.64 0-4.782 2.15-4.782 4.802 0 2.65 2.14 4.8 4.782 4.8zM826.158 115.19c2.64 0 4.78-2.15 4.78-4.8 0-2.652-2.14-4.8-4.78-4.8s-4.782 2.148-4.782 4.8c0 2.65 2.14 4.8 4.782 4.8z" fill="#FFF"/><ellipse fill="#FFF" cx="88.148" cy="99.875" rx="4.782" ry="4.801"/><ellipse fill="#FFF" cx="132.315" cy="144.218" rx="4.782" ry="4.801"/><ellipse fill="#FFF" cx="176.482" cy="114.656" rx="4.782" ry="4.801"/><ellipse fill="#FFF" cx="220.176" cy="66.547" rx="4.782" ry="4.801"/><ellipse fill="#FFF" cx="264.815" cy="129.437" rx="4.782" ry="4.801"/><ellipse fill="#FFF" cx="286.898" cy="91.007" rx="4.782" ry="4.801"/><ellipse fill="#FFF" cx="353.148" cy="85.095" rx="4.782" ry="4.801"/><ellipse fill="#FFF" cx="365.588" cy="47.904" rx="4.782" ry="4.801"/><ellipse fill="#FFF" cx="397.315" cy="40.752" rx="4.782" ry="4.801"/><ellipse fill="#FFF" cx="421.629" cy="121.665" rx="4.782" ry="4.801"/><ellipse fill="#FFF" cx="446.508" cy="121.665" rx="4.782" ry="4.801"/><ellipse fill="#FFF" cx="508.707" cy="59.681" rx="4.782" ry="4.801"/><ellipse fill="#FFF" cx="541.05" cy="10.093" rx="4.782" ry="4.801"/><path d="M571.818 97.906c2.64 0 4.782-2.15 4.782-4.8 0-2.653-2.14-4.802-4.782-4.802-2.64 0-4.78 2.15-4.78 4.8 0 2.652 2.14 4.802 4.78 4.802zM586.746 151.212c2.64 0 4.782-2.15 4.782-4.8 0-2.652-2.14-4.8-4.782-4.8-2.64 0-4.782 2.148-4.782 4.8 0 2.65 2.14 4.8 4.782 4.8zM596.698 114.022c2.64 0 4.78-2.15 4.78-4.8 0-2.653-2.14-4.802-4.78-4.802s-4.782 2.15-4.782 4.8c0 2.652 2.14 4.802 4.782 4.802zM606.65 76.83c2.64 0 4.78-2.148 4.78-4.8 0-2.65-2.14-4.8-4.78-4.8s-4.782 2.15-4.782 4.8c0 2.652 2.14 4.8 4.78 4.8zM624.065 9.888c2.64 0 4.782-2.15 4.782-4.8 0-2.653-2.14-4.802-4.782-4.802-2.64 0-4.782 2.15-4.782 4.8 0 2.652 2.14 4.802 4.782 4.802zM615.357 43.36c2.64 0 4.782-2.15 4.782-4.802 0-2.65-2.142-4.8-4.783-4.8-2.64 0-4.78 2.15-4.78 4.8 0 2.652 2.14 4.8 4.78 4.8zM629.04 55.756c2.642 0 4.783-2.15 4.783-4.8 0-2.652-2.14-4.8-4.782-4.8-2.64 0-4.78 2.148-4.78 4.8 0 2.65 2.14 4.8 4.78 4.8zM632.773 84.27c2.64 0 4.782-2.15 4.782-4.802 0-2.65-2.14-4.8-4.782-4.8-2.64 0-4.782 2.15-4.782 4.8 0 2.652 2.142 4.8 4.783 4.8zM646.456 56.996c2.64 0 4.782-2.15 4.782-4.8 0-2.652-2.14-4.802-4.782-4.802-2.64 0-4.78 2.15-4.78 4.8 0 2.652 2.14 4.802 4.78 4.802z" fill="#FFF"/><ellipse fill="#FFF" cx="565.929" cy="59.681" rx="4.782" ry="4.801"/><ellipse fill="#FFF" cx="460.192" cy="86.954" rx="4.782" ry="4.801"/><ellipse fill="#FFF" cx="4.837" cy="72.698" rx="4.782" ry="4.801"/><ellipse fill="#FFF" cx="49.96" cy="29.311" rx="4.782" ry="4.801"/></g><g transform="translate(868.132 24.908)" stroke="#E76959" stroke-width="2"><path d="M724.474 114.902l14.928-4.96M743.836 103.284l7.652-34.428M764.568 44.092l5.093-12.533M785.43 69.423l-12.44-40.91M815.572 106.153l-28.695-37.297M167.568 117.092l-40.66 25.4M211.96 70.662l-40.098 42.185M215.69 71.902l42.496 59.386M259.858 126.236l17.216-29.646M285.353 91.737l61.166-6.27M80.386 98.22l-34.83-63.225M360.288 46.86l31.87-5.736M346.897 83.2l10.52-33.47M392.808 44.948l21.918 74.062M419.59 121.454l16.284 1.275M440.85 121.49l10.303-30.638M457.02 84.3l43.54-23.555M504.716 56.424l26.782-42.08M564.018 88.94l-3.826-24.866M556.54 54.546l-20.26-40.2M578.93 142.564l-13-45.018M581.234 142.493l18.844-68.112M600.364 69.812l16.26-63.118M625.232 79.376l-7.65-71.725M628.102 76.507l11.783-21.96M663.492 124.323l-23.607-68.537M678.568 107.092l5.966-7.633M686.447 100.415l9.416 26.033M701.75 74.594l-6.695 43.99M701.75 76.507l6.553 83.413M721.837 118.585L710.79 157.44M81.52 101.726l45.638 44.343m-45.64-44.344l45.64 44.343M.868 107.092l42.98-78.365"/><path d="M639.456 56.996c2.64 0 4.782-2.15 4.782-4.8 0-2.652-2.14-4.802-4.782-4.802-2.64 0-4.78 2.15-4.78 4.8 0 2.652 2.14 4.802 4.78 4.802zM664.336 131.377c2.64 0 4.782-2.15 4.782-4.8 0-2.652-2.14-4.8-4.782-4.8-2.64 0-4.782 2.148-4.782 4.8 0 2.65 2.14 4.8 4.782 4.8zM685.483 102.864c2.64 0 4.782-2.15 4.782-4.8 0-2.652-2.14-4.8-4.782-4.8-2.64 0-4.78 2.148-4.78 4.8 0 2.65 2.14 4.8 4.78 4.8zM694.19 127.658c2.642 0 4.783-2.15 4.783-4.8 0-2.652-2.14-4.8-4.782-4.8-2.64 0-4.78 2.148-4.78 4.8 0 2.65 2.14 4.8 4.78 4.8zM701.655 78.07c2.64 0 4.782-2.15 4.782-4.8 0-2.652-2.14-4.8-4.782-4.8-2.64 0-4.782 2.148-4.782 4.8 0 2.65 2.14 4.8 4.782 4.8zM707.875 164.85c2.64 0 4.78-2.15 4.78-4.802 0-2.65-2.14-4.8-4.78-4.8s-4.782 2.15-4.782 4.8 2.14 4.8 4.782 4.8zM722.802 121.46c2.64 0 4.782-2.15 4.782-4.8 0-2.652-2.14-4.802-4.782-4.802-2.64 0-4.78 2.15-4.78 4.8 0 2.652 2.14 4.802 4.78 4.802zM742.706 112.782c2.64 0 4.782-2.15 4.782-4.8 0-2.652-2.14-4.802-4.782-4.802-2.64 0-4.782 2.15-4.782 4.8 0 2.652 2.14 4.802 4.782 4.802zM752.658 68.153c2.64 0 4.78-2.15 4.78-4.8 0-2.652-2.14-4.802-4.78-4.802s-4.782 2.15-4.782 4.802c0 2.652 2.14 4.8 4.782 4.8zM771.317 32.202c2.64 0 4.782-2.15 4.782-4.8 0-2.652-2.142-4.802-4.783-4.802-2.64 0-4.782 2.15-4.782 4.8 0 2.653 2.14 4.802 4.782 4.802zM783.757 69.393c2.64 0 4.782-2.15 4.782-4.8 0-2.652-2.142-4.802-4.783-4.802-2.64 0-4.782 2.15-4.782 4.802 0 2.65 2.14 4.8 4.782 4.8zM819.158 115.19c2.64 0 4.78-2.15 4.78-4.8 0-2.652-2.14-4.8-4.78-4.8s-4.782 2.148-4.782 4.8c0 2.65 2.14 4.8 4.782 4.8z" fill="#FFF"/><ellipse fill="#FFF" cx="81.148" cy="99.875" rx="4.782" ry="4.801"/><ellipse fill="#FFF" cx="125.315" cy="144.218" rx="4.782" ry="4.801"/><ellipse fill="#FFF" cx="169.482" cy="114.656" rx="4.782" ry="4.801"/><ellipse fill="#FFF" cx="213.176" cy="66.547" rx="4.782" ry="4.801"/><ellipse fill="#FFF" cx="257.815" cy="129.437" rx="4.782" ry="4.801"/><ellipse fill="#FFF" cx="279.898" cy="91.007" rx="4.782" ry="4.801"/><ellipse fill="#FFF" cx="346.148" cy="85.095" rx="4.782" ry="4.801"/><ellipse fill="#FFF" cx="358.588" cy="47.904" rx="4.782" ry="4.801"/><ellipse fill="#FFF" cx="390.315" cy="40.752" rx="4.782" ry="4.801"/><ellipse fill="#FFF" cx="414.629" cy="121.665" rx="4.782" ry="4.801"/><ellipse fill="#FFF" cx="439.508" cy="121.665" rx="4.782" ry="4.801"/><ellipse fill="#FFF" cx="501.707" cy="59.681" rx="4.782" ry="4.801"/><ellipse fill="#FFF" cx="534.05" cy="10.093" rx="4.782" ry="4.801"/><path d="M564.818 97.906c2.64 0 4.782-2.15 4.782-4.8 0-2.653-2.14-4.802-4.782-4.802-2.64 0-4.78 2.15-4.78 4.8 0 2.652 2.14 4.802 4.78 4.802zM579.746 151.212c2.64 0 4.782-2.15 4.782-4.8 0-2.652-2.14-4.8-4.782-4.8-2.64 0-4.782 2.148-4.782 4.8 0 2.65 2.14 4.8 4.782 4.8zM589.698 114.022c2.64 0 4.78-2.15 4.78-4.8 0-2.653-2.14-4.802-4.78-4.802s-4.782 2.15-4.782 4.8c0 2.652 2.14 4.802 4.782 4.802zM599.65 76.83c2.64 0 4.78-2.148 4.78-4.8 0-2.65-2.14-4.8-4.78-4.8s-4.782 2.15-4.782 4.8c0 2.652 2.14 4.8 4.78 4.8zM617.065 9.888c2.64 0 4.782-2.15 4.782-4.8 0-2.653-2.14-4.802-4.782-4.802-2.64 0-4.782 2.15-4.782 4.8 0 2.652 2.14 4.802 4.782 4.802zM608.357 43.36c2.64 0 4.782-2.15 4.782-4.802 0-2.65-2.142-4.8-4.783-4.8-2.64 0-4.78 2.15-4.78 4.8 0 2.652 2.14 4.8 4.78 4.8zM622.04 55.756c2.642 0 4.783-2.15 4.783-4.8 0-2.652-2.14-4.8-4.782-4.8-2.64 0-4.78 2.148-4.78 4.8 0 2.65 2.14 4.8 4.78 4.8zM625.773 84.27c2.64 0 4.782-2.15 4.782-4.802 0-2.65-2.14-4.8-4.782-4.8-2.64 0-4.782 2.15-4.782 4.8 0 2.652 2.142 4.8 4.783 4.8zM639.456 56.996c2.64 0 4.782-2.15 4.782-4.8 0-2.652-2.14-4.802-4.782-4.802-2.64 0-4.78 2.15-4.78 4.8 0 2.652 2.14 4.802 4.78 4.802z" fill="#FFF"/><ellipse fill="#FFF" cx="558.929" cy="59.681" rx="4.782" ry="4.801"/><ellipse fill="#FFF" cx="453.192" cy="86.954" rx="4.782" ry="4.801"/><ellipse fill="#FFF" cx="42.96" cy="29.311" rx="4.782" ry="4.801"/></g><g stroke="#D0011B" stroke-width="2.5"><path d="M793.71 115.087l4.66-20.125M803.7 83l7.354-14.144M263.823 97.81l24.683 34.494M412.202 70.812l19.13-2.87M397.855 96.633l5.287-17.285M595.063 62.24L584.55 41.29M552.805 79.42l24.868-38.254M715.34 146.008l9.63-13.034M709.667 145.406l-16.26-46.86M257.18 97.483l-17.144 18.277"/></g><g stroke="#D0011B" stroke-width="2.5"><path d="M1614.63 115.087l4.66-20.125M1624.62 83l7.354-14.144M1084.744 97.81l24.682 34.494M1233.123 70.812l19.13-2.87M1218.775 96.633l5.287-17.285M1415.983 62.24l-10.512-20.95M1373.725 79.42l24.868-38.254M1536.26 146.008l9.63-13.034M1530.588 145.406l-16.26-46.86M1078.1 97.483l-17.144 18.277"/></g><path d="M244.624 0v219.71" stroke="#0A0A08"/><path d="M.395 219.71h84.53V0H.394v219.71z" fill-opacity=".2" fill="url(#a)" transform="translate(159.7)"/><path d="M211.7 200.234h32.924v14.49H211.7v-14.49z" fill="#0A0A08"/><path d="M220.186 211.6v-7.382h-2.69v1.107h1.445v6.275h1.246zm4.077 0v-7.382h-2.69v1.107h1.446v6.275h1.243zm2.4-4.43c-.38 0-.664.286-.664.686 0 .412.284.707.664.707.38 0 .664-.295.664-.707 0-.4-.285-.685-.664-.685zm0 3.133c-.38 0-.664.285-.664.685 0 .412.284.707.664.707.38 0 .664-.295.664-.707 0-.4-.285-.685-.664-.685zm4.328-6.138c-.948 0-1.886.4-2.688 1.055l.496.96c.622-.57 1.37-.928 2.014-.928.77 0 1.234.358 1.234.95 0 .42-.36 1.022-.896 1.57l-2.72 2.92v.908h5.25v-1.118h-3.606l1.92-2.035c.78-.844 1.35-1.677 1.35-2.426 0-1.127-.96-1.855-2.353-1.855zm8.65 1.17l-.01-1.117h-4.493v3.902a25.114 25.114 0 0 1 1.94-.095c.95 0 1.53.464 1.53 1.213 0 .833-.58 1.33-1.54 1.33-.665 0-1.403-.286-1.994-.782l-.495 1.013c.727.505 1.75.842 2.626.842 1.655 0 2.73-.98 2.73-2.478 0-1.297-1.033-2.246-2.636-2.246l-1.012.01v-1.592h3.354z" fill="#FFF"/><g transform="translate(239.7 104)"><circle cx="5.5" cy="5.5" r="5.5" stroke="#FFF" fill="#B68EFF"/><circle cx="5.5" cy="5.5" r="5.5"/></g><g><path d="M-20.653-9h56.895v231h-56.895V-9z" fill="#FFF"/><path d="M12.048 175.15c-1.076 0-2.14.454-3.05 1.196l.563 1.088c.706-.646 1.555-1.052 2.285-1.052.873 0 1.4.406 1.4 1.076 0 .478-.408 1.16-1.017 1.782l-3.086 3.313v1.028h5.956v-1.266h-4.09l2.176-2.31c.885-.955 1.53-1.9 1.53-2.75 0-1.28-1.087-2.104-2.666-2.104zm7.726.024c-2.296 0-3.564 1.507-3.564 4.222 0 2.714 1.268 4.22 3.564 4.22 2.284 0 3.552-1.506 3.552-4.22 0-2.715-1.268-4.222-3.552-4.222zm0 1.112c1.4 0 2.105.98 2.105 3.11 0 2.116-.707 3.11-2.106 3.11-1.41 0-2.117-.994-2.117-3.11 0-2.13.706-3.11 2.117-3.11zM12.25 97.215c-2.21 0-3.61 1.746-3.61 4.413 0 2.57 1.29 4.078 3.408 4.078 1.782 0 2.942-1.076 2.942-2.81 0-1.627-1.016-2.667-2.69-2.667-1.053 0-1.842.405-2.285 1.183-.048-1.806.706-3.026 2.332-3.026.634 0 1.34.19 1.854.526l.55-1.064c-.68-.384-1.673-.635-2.5-.635zm-.214 4.126c1.017 0 1.64.587 1.64 1.544 0 1.016-.683 1.602-1.7 1.602-1.208 0-1.746-.825-1.734-1.554-.012-.86.658-1.59 1.794-1.59zm7.54-4.1c-2.296 0-3.563 1.506-3.563 4.22 0 2.716 1.267 4.222 3.564 4.222 2.284 0 3.552-1.506 3.552-4.22 0-2.716-1.27-4.223-3.553-4.223zm0 1.11c1.4 0 2.106.982 2.106 3.11 0 2.118-.706 3.11-2.105 3.11-1.41 0-2.117-.992-2.117-3.11 0-2.128.706-3.11 2.117-3.11zM11.716 56.124c-1.71 0-2.798.802-2.798 2.117 0 .814.49 1.472 1.303 1.843-1.063.335-1.72 1.124-1.72 2.153 0 1.47 1.243 2.38 3.216 2.38 1.986 0 3.23-.91 3.23-2.404 0-1.017-.646-1.794-1.663-2.13.777-.346 1.244-.98 1.244-1.793 0-1.34-1.088-2.166-2.81-2.166zm0 1.017c1.017 0 1.603.455 1.603 1.233 0 .777-.587 1.22-1.604 1.22-1.004 0-1.602-.443-1.602-1.22 0-.778.598-1.232 1.602-1.232zm0 3.553c1.196 0 1.89.514 1.89 1.387 0 .91-.694 1.423-1.89 1.423S9.84 62.99 9.84 62.08c0-.873.692-1.387 1.876-1.387zm7.897-4.545c-2.297 0-3.564 1.507-3.564 4.222 0 2.715 1.266 4.222 3.563 4.222 2.284 0 3.552-1.507 3.552-4.222 0-2.715-1.268-4.222-3.552-4.222zm0 1.113c1.4 0 2.105.98 2.105 3.11 0 2.117-.706 3.11-2.105 3.11-1.412 0-2.117-.993-2.117-3.11 0-2.13.705-3.11 2.117-3.11zM5.7 21.69v-8.372H2.65v1.256h1.64v7.116H5.7zm5.563-8.408c-2.296 0-3.564 1.507-3.564 4.222 0 2.715 1.267 4.222 3.563 4.222 2.284 0 3.552-1.507 3.552-4.222 0-2.715-1.268-4.222-3.552-4.222zm0 1.113c1.4 0 2.105.98 2.105 3.11 0 2.116-.706 3.11-2.105 3.11-1.41 0-2.117-.994-2.117-3.11 0-2.13.706-3.11 2.117-3.11zm8.398-1.113c-2.295 0-3.563 1.507-3.563 4.222 0 2.715 1.268 4.222 3.564 4.222 2.285 0 3.553-1.507 3.553-4.222 0-2.715-1.268-4.222-3.552-4.222zm0 1.113c1.4 0 2.106.98 2.106 3.11 0 2.116-.706 3.11-2.105 3.11-1.41 0-2.116-.994-2.116-3.11 0-2.13.706-3.11 2.117-3.11zM19.742 206.174c-2.296 0-3.564 1.507-3.564 4.222 0 2.714 1.268 4.22 3.564 4.22 2.284 0 3.552-1.506 3.552-4.22 0-2.715-1.268-4.222-3.552-4.222zm0 1.112c1.4 0 2.105.98 2.105 3.11 0 2.116-.706 3.11-2.105 3.11-1.41 0-2.117-.994-2.117-3.11 0-2.13.706-3.11 2.117-3.11zM9.93 143.334l2.716-5.06h-1.363l-2.86 5.263v1.052h3.996v2.057h1.314v-2.058h1.22v-1.256h-1.22v-1.986H12.42v1.986H9.93zm9.455-5.095c-2.296 0-3.564 1.506-3.564 4.22 0 2.716 1.27 4.222 3.565 4.222 2.285 0 3.552-1.506 3.552-4.22 0-2.716-1.267-4.223-3.552-4.223zm0 1.11c1.4 0 2.105.982 2.105 3.11 0 2.118-.705 3.11-2.105 3.11-1.41 0-2.116-.992-2.116-3.11 0-2.128.704-3.11 2.115-3.11z" fill="#9B9B9B"/><g stroke="#9B9B9B" stroke-width=".5"><path d="M36.31 103.377H29.39M36.31 60.377H29.39M36.31 82.377H29.39M36.31 15.377H29.39M36.31 38.377H29.39M36.31 211.377H29.39M36.31 142.377H29.39M36.31 160.377H29.39M36.31 121.377H29.39M36.31 178.377H29.39M36.31 193.377H29.39"/></g></g><g><path d="M920.347 267h-932v-48h932v48z" fill="#FFF"/><path d="M138.448 231.896l-.012-1.268h-5.094v4.425a28.48 28.48 0 0 1 2.2-.107c1.076 0 1.734.526 1.734 1.375 0 .946-.658 1.508-1.746 1.508-.753 0-1.59-.323-2.26-.885l-.562 1.148c.825.575 1.985.958 2.978.958 1.877 0 3.097-1.112 3.097-2.81 0-1.472-1.172-2.548-2.99-2.548l-1.148.012v-1.806h3.803zM44.485 230.592c-2.296 0-3.564 1.507-3.564 4.222 0 2.715 1.27 4.222 3.565 4.222 2.284 0 3.552-1.507 3.552-4.222 0-2.715-1.268-4.222-3.552-4.222zm0 1.113c1.4 0 2.105.98 2.105 3.11 0 2.116-.706 3.11-2.105 3.11-1.41 0-2.117-.994-2.117-3.11 0-2.13.706-3.11 2.117-3.11zM222.606 239v-8.372h-3.05v1.256h1.64V239h1.41zm5.56-8.408c-2.295 0-3.563 1.507-3.563 4.222 0 2.715 1.268 4.222 3.564 4.222 2.284 0 3.552-1.507 3.552-4.222 0-2.715-1.27-4.222-3.553-4.222zm0 1.113c1.4 0 2.106.98 2.106 3.11 0 2.116-.706 3.11-2.105 3.11-1.41 0-2.117-.994-2.117-3.11 0-2.13.706-3.11 2.117-3.11zM402.643 230.57c-1.076 0-2.14.453-3.05 1.194l.563 1.09c.705-.647 1.554-1.054 2.284-1.054.873 0 1.4.407 1.4 1.077 0 .478-.407 1.16-1.017 1.782l-3.086 3.31V239h5.956v-1.268h-4.09l2.176-2.308c.884-.957 1.53-1.9 1.53-2.75 0-1.28-1.088-2.105-2.667-2.105zm7.726.022c-2.297 0-3.565 1.507-3.565 4.222 0 2.715 1.268 4.222 3.564 4.222 2.283 0 3.55-1.507 3.55-4.222 0-2.715-1.267-4.222-3.55-4.222zm0 1.113c1.398 0 2.104.98 2.104 3.11 0 2.116-.706 3.11-2.105 3.11-1.412 0-2.118-.994-2.118-3.11 0-2.13.706-3.11 2.117-3.11zM314.552 239v-8.372h-3.05v1.256h1.64V239h1.41zm7.475-7.104l-.012-1.268h-5.095v4.425a28.48 28.48 0 0 1 2.2-.107c1.077 0 1.735.526 1.735 1.375 0 .946-.658 1.508-1.746 1.508-.755 0-1.592-.323-2.262-.885l-.562 1.148c.826.575 1.986.958 2.978.958 1.878 0 3.098-1.112 3.098-2.81 0-1.472-1.172-2.548-2.99-2.548l-1.148.012v-1.806h3.803zM493.325 230.57c-1.076 0-2.14.453-3.05 1.194l.562 1.09c.706-.647 1.555-1.054 2.285-1.054.873 0 1.4.407 1.4 1.077 0 .478-.408 1.16-1.018 1.782l-3.085 3.31V239h5.955v-1.268h-4.09l2.176-2.308c.886-.957 1.532-1.9 1.532-2.75 0-1.28-1.088-2.105-2.667-2.105zm9.64 1.326l-.013-1.268h-5.094v4.425a28.48 28.48 0 0 1 2.2-.107c1.077 0 1.734.526 1.734 1.375 0 .946-.657 1.508-1.746 1.508-.753 0-1.59-.323-2.26-.885l-.562 1.148c.825.575 1.985.958 2.978.958 1.877 0 3.097-1.112 3.097-2.81 0-1.472-1.173-2.548-2.99-2.548l-1.15.012v-1.806h3.804zM673.307 234.11l2.392-2.585v-.885h-5.096v1.256h3.35l-2.178 2.344v.825h1.16c1.113 0 1.77.467 1.77 1.376 0 .862-.646 1.436-1.758 1.436-.765 0-1.543-.31-2.14-.873l-.587 1.148c.72.55 1.795.91 2.824.91 1.866 0 3.05-1.09 3.05-2.655 0-1.316-.957-2.13-2.356-2.25l-.43-.046zm9.364-2.214l-.01-1.268h-5.095v4.425a28.48 28.48 0 0 1 2.2-.107c1.077 0 1.734.526 1.734 1.375 0 .946-.658 1.508-1.747 1.508-.753 0-1.59-.323-2.26-.885l-.562 1.148c.826.575 1.986.958 2.98.958 1.876 0 3.096-1.112 3.096-2.81 0-1.472-1.172-2.548-2.99-2.548l-1.148.012v-1.806h3.803zM583.625 234.11l2.392-2.585v-.885h-5.095v1.256h3.35l-2.177 2.344v.825h1.16c1.112 0 1.77.467 1.77 1.376 0 .862-.646 1.436-1.758 1.436-.766 0-1.543-.31-2.14-.873l-.587 1.148c.717.55 1.794.91 2.822.91 1.866 0 3.05-1.09 3.05-2.655 0-1.316-.957-2.13-2.356-2.25l-.43-.046zm7.45-3.518c-2.295 0-3.563 1.507-3.563 4.222 0 2.715 1.268 4.222 3.564 4.222 2.284 0 3.552-1.507 3.552-4.222 0-2.715-1.268-4.222-3.552-4.222zm0 1.113c1.4 0 2.106.98 2.106 3.11 0 2.116-.705 3.11-2.104 3.11-1.41 0-2.117-.994-2.117-3.11 0-2.13.705-3.11 2.116-3.11zM763 235.687l2.714-5.06h-1.364l-2.858 5.264v1.053h3.994V239h1.316v-2.057h1.22v-1.256h-1.22v-1.985h-1.316v1.985H763zm9.435-5.095c-2.296 0-3.564 1.507-3.564 4.222 0 2.715 1.27 4.222 3.565 4.222 2.284 0 3.552-1.507 3.552-4.222 0-2.715-1.268-4.222-3.552-4.222zm0 1.113c1.4 0 2.105.98 2.105 3.11 0 2.116-.706 3.11-2.105 3.11-1.41 0-2.117-.994-2.117-3.11 0-2.13.706-3.11 2.117-3.11zM852.18 235.687l2.715-5.06h-1.363l-2.858 5.264v1.053h3.994V239h1.316v-2.057h1.22v-1.256h-1.22v-1.985h-1.316v1.985h-2.487zm11.35-3.79l-.012-1.27h-5.095v4.426a28.48 28.48 0 0 1 2.2-.107c1.077 0 1.735.526 1.735 1.375 0 .946-.658 1.508-1.746 1.508-.753 0-1.59-.323-2.26-.885l-.562 1.148c.825.575 1.985.958 2.977.958 1.878 0 3.098-1.112 3.098-2.81 0-1.472-1.172-2.548-2.99-2.548l-1.148.012v-1.806h3.803zM1037.65 231.896l-.01-1.268h-5.096v4.425a28.48 28.48 0 0 1 2.2-.107c1.077 0 1.735.526 1.735 1.375 0 .946-.66 1.508-1.747 1.508-.754 0-1.59-.323-2.26-.885l-.563 1.148c.825.575 1.986.958 2.978.958 1.878 0 3.098-1.112 3.098-2.81 0-1.472-1.172-2.548-2.99-2.548l-1.148.012v-1.806h3.803zm6.902 0l-.012-1.268h-5.095v4.425a28.48 28.48 0 0 1 2.2-.107c1.077 0 1.735.526 1.735 1.375 0 .946-.658 1.508-1.747 1.508-.753 0-1.59-.323-2.26-.885l-.562 1.148c.826.575 1.986.958 2.98.958 1.877 0 3.096-1.112 3.096-2.81 0-1.472-1.172-2.548-2.99-2.548l-1.148.012v-1.806h3.804zM945.97 231.896l-.013-1.268h-5.095v4.425a28.48 28.48 0 0 1 2.2-.107c1.077 0 1.735.526 1.735 1.375 0 .946-.658 1.508-1.746 1.508-.752 0-1.59-.323-2.26-.885l-.56 1.148c.824.575 1.984.958 2.977.958 1.877 0 3.097-1.112 3.097-2.81 0-1.472-1.172-2.548-2.99-2.548l-1.148.012v-1.806h3.803zm4.986-1.304c-2.296 0-3.564 1.507-3.564 4.222 0 2.715 1.268 4.222 3.564 4.222 2.285 0 3.552-1.507 3.552-4.222 0-2.715-1.267-4.222-3.552-4.222zm0 1.113c1.4 0 2.105.98 2.105 3.11 0 2.116-.704 3.11-2.104 3.11-1.41 0-2.117-.994-2.117-3.11 0-2.13.705-3.11 2.116-3.11zM1124.876 230.57c-2.212 0-3.612 1.745-3.612 4.412 0 2.57 1.292 4.078 3.41 4.078 1.78 0 2.94-1.077 2.94-2.81 0-1.627-1.016-2.668-2.69-2.668-1.052 0-1.842.407-2.284 1.184-.048-1.806.705-3.025 2.332-3.025.634 0 1.34.192 1.854.527l.55-1.065c-.682-.382-1.675-.633-2.5-.633zm-.215 4.125c1.018 0 1.64.586 1.64 1.542 0 1.017-.682 1.603-1.7 1.603-1.207 0-1.745-.825-1.733-1.555-.012-.86.658-1.59 1.794-1.59zm7.524-4.103c-2.297 0-3.564 1.507-3.564 4.222 0 2.715 1.267 4.222 3.564 4.222 2.284 0 3.552-1.507 3.552-4.222 0-2.715-1.268-4.222-3.552-4.222zm0 1.113c1.4 0 2.104.98 2.104 3.11 0 2.116-.705 3.11-2.104 3.11-1.412 0-2.117-.994-2.117-3.11 0-2.13.705-3.11 2.117-3.11zM1308.49 231.705v-1.077h-6.088v2.44h1.244l.012-1.172h3.253L1303.66 239h1.495l3.336-7.295zm4.424-1.113c-2.296 0-3.563 1.507-3.563 4.222 0 2.715 1.268 4.222 3.564 4.222 2.285 0 3.552-1.507 3.552-4.222 0-2.715-1.267-4.222-3.552-4.222zm0 1.113c1.4 0 2.105.98 2.105 3.11 0 2.116-.706 3.11-2.106 3.11-1.41 0-2.116-.994-2.116-3.11 0-2.13.705-3.11 2.116-3.11zM1215.186 230.57c-2.213 0-3.612 1.745-3.612 4.412 0 2.57 1.292 4.078 3.41 4.078 1.78 0 2.94-1.077 2.94-2.81 0-1.627-1.016-2.668-2.69-2.668-1.053 0-1.842.407-2.285 1.184-.048-1.806.705-3.025 2.332-3.025.633 0 1.34.192 1.853.527l.55-1.065c-.68-.382-1.674-.633-2.5-.633zm-.215 4.125c1.017 0 1.64.586 1.64 1.542 0 1.017-.683 1.603-1.7 1.603-1.207 0-1.745-.825-1.733-1.555-.012-.86.657-1.59 1.794-1.59zm9.437-2.8l-.012-1.267h-5.095v4.425a28.48 28.48 0 0 1 2.2-.107c1.077 0 1.735.526 1.735 1.375 0 .946-.658 1.508-1.746 1.508-.755 0-1.592-.323-2.262-.885l-.562 1.148c.825.575 1.985.958 2.978.958 1.878 0 3.098-1.112 3.098-2.81 0-1.472-1.172-2.548-2.99-2.548l-1.148.012v-1.806h3.803zM1399.17 231.705v-1.077h-6.086v2.44h1.243l.012-1.172h3.252L1394.34 239h1.494l3.337-7.295zm6.34.19l-.012-1.267h-5.095v4.425a28.48 28.48 0 0 1 2.2-.107c1.077 0 1.735.526 1.735 1.375 0 .946-.658 1.508-1.746 1.508-.754 0-1.59-.323-2.26-.885l-.563 1.148c.824.575 1.984.958 2.977.958 1.878 0 3.098-1.112 3.098-2.81 0-1.472-1.172-2.548-2.99-2.548l-1.148.012v-1.806h3.803zM1576.05 230.57c-1.71 0-2.8.8-2.8 2.115 0 .814.49 1.47 1.305 1.842-1.065.335-1.722 1.124-1.722 2.153 0 1.47 1.243 2.38 3.217 2.38 1.985 0 3.23-.91 3.23-2.404 0-1.017-.647-1.794-1.664-2.13.778-.346 1.244-.98 1.244-1.793 0-1.34-1.088-2.164-2.81-2.164zm0 1.015c1.016 0 1.602.455 1.602 1.232 0 .777-.586 1.22-1.602 1.22-1.005 0-1.603-.443-1.603-1.22 0-.777.598-1.232 1.603-1.232zm0 3.552c1.196 0 1.89.514 1.89 1.387 0 .91-.694 1.424-1.89 1.424s-1.878-.515-1.878-1.424c0-.873.694-1.387 1.878-1.387zm9.795-3.24l-.012-1.27h-5.095v4.426a28.48 28.48 0 0 1 2.2-.107c1.077 0 1.735.526 1.735 1.375 0 .946-.658 1.508-1.747 1.508-.753 0-1.59-.323-2.26-.885l-.562 1.148c.825.575 1.985.958 2.978.958 1.878 0 3.097-1.112 3.097-2.81 0-1.472-1.173-2.548-2.99-2.548l-1.15.012v-1.806h3.805zM1486.368 230.57c-1.71 0-2.8.8-2.8 2.115 0 .814.492 1.47 1.305 1.842-1.064.335-1.722 1.124-1.722 2.153 0 1.47 1.245 2.38 3.218 2.38 1.985 0 3.23-.91 3.23-2.404 0-1.017-.647-1.794-1.663-2.13.777-.346 1.243-.98 1.243-1.793 0-1.34-1.088-2.164-2.81-2.164zm0 1.015c1.017 0 1.603.455 1.603 1.232 0 .777-.585 1.22-1.602 1.22-1.005 0-1.603-.443-1.603-1.22 0-.777.598-1.232 1.603-1.232zm0 3.552c1.196 0 1.89.514 1.89 1.387 0 .91-.694 1.424-1.89 1.424s-1.878-.515-1.878-1.424c0-.873.694-1.387 1.878-1.387zm7.88-4.545c-2.295 0-3.563 1.507-3.563 4.222 0 2.715 1.268 4.222 3.564 4.222 2.284 0 3.55-1.507 3.55-4.222 0-2.715-1.266-4.222-3.55-4.222zm0 1.113c1.4 0 2.106.98 2.106 3.11 0 2.116-.705 3.11-2.105 3.11-1.412 0-2.118-.994-2.118-3.11 0-2.13.706-3.11 2.117-3.11zM1666.93 239.06c2.214 0 3.613-1.746 3.613-4.413 0-2.572-1.29-4.078-3.408-4.078-1.782 0-2.942 1.075-2.942 2.81 0 1.626 1.016 2.666 2.69 2.666 1.053 0 1.842-.407 2.285-1.184.048 1.806-.706 3.026-2.332 3.026-.634 0-1.34-.192-1.854-.526l-.55 1.064c.682.383 1.674.634 2.5.634zm.217-4.126c-1.017 0-1.64-.586-1.64-1.543 0-1.016.683-1.602 1.7-1.602 1.207 0 1.746.826 1.734 1.555.013.86-.657 1.59-1.793 1.59zm8.037-4.342c-2.297 0-3.564 1.507-3.564 4.222 0 2.715 1.267 4.222 3.564 4.222 2.284 0 3.552-1.507 3.552-4.222 0-2.715-1.268-4.222-3.552-4.222zm0 1.113c1.4 0 2.104.98 2.104 3.11 0 2.116-.705 3.11-2.104 3.11-1.412 0-2.117-.994-2.117-3.11 0-2.13.705-3.11 2.117-3.11z" fill="#9B9B9B"/><g stroke="#9B9B9B" stroke-width=".5"><path d="M117 218.662v6.918M81 218.662v6.918M99 218.662v6.918M44.748 218.662v6.918M63 218.662v6.918M153 218.662v6.918M171 218.662v6.918M135 218.662v6.918M189 218.662v6.918M207 218.662v6.918M297 218.662v6.918M261 218.662v6.918M279 218.662v6.918M224.748 218.662v6.918M243 218.662v6.918M333 218.662v6.918M351 218.662v6.918M315 218.662v6.918M369 218.662v6.918M387 218.662v6.918M479 218.662v6.918M443 218.662v6.918M461 218.662v6.918M406.748 218.662v6.918M425 218.662v6.918M515 218.662v6.918M533 218.662v6.918M497 218.662v6.918M551 218.662v6.918M569 218.662v6.918M659 218.662v6.918M623 218.662v6.918M641 218.662v6.918M586.748 218.662v6.918M605 218.662v6.918M695 218.662v6.918M713 218.662v6.918M677 218.662v6.918M731 218.662v6.918M749 218.662v6.918M840 218.662v6.918M804 218.662v6.918M822 218.662v6.918M767.748 218.662v6.918M786 218.662v6.918M876 218.662v6.918M894 218.662v6.918M858 218.662v6.918M912 218.662v6.918M930 218.662v6.918M1019.252 218.662v6.918M983.252 218.662v6.918M1001.252 218.662v6.918M947 218.662v6.918M965.252 218.662v6.918M1055.252 218.662v6.918M1073.252 218.662v6.918M1037.252 218.662v6.918M1091.252 218.662v6.918M1109.252 218.662v6.918M1199.252 218.662v6.918M1163.252 218.662v6.918M1181.252 218.662v6.918M1127 218.662v6.918M1145.252 218.662v6.918M1235.252 218.662v6.918M1253.252 218.662v6.918M1217.252 218.662v6.918M1271.252 218.662v6.918M1289.252 218.662v6.918M1381.252 218.662v6.918M1345.252 218.662v6.918M1363.252 218.662v6.918M1309 218.662v6.918M1327.252 218.662v6.918M1417.252 218.662v6.918M1435.252 218.662v6.918M1399.252 218.662v6.918M1453.252 218.662v6.918M1471.252 218.662v6.918M1561.252 218.662v6.918M1525.252 218.662v6.918M1543.252 218.662v6.918M1489 218.662v6.918M1507.252 218.662v6.918M1597.252 218.662v6.918M1615.252 218.662v6.918M1579.252 218.662v6.918M1633.252 218.662v6.918M1651.252 218.662v6.918M1670 218.662v6.918M1688.252 218.662v6.918"/></g></g></g></svg>